<svg width="203" height="54" viewBox="0 0 203 54" fill="none" xmlns="http://www.w3.org/2000/svg">
<g clip-path="url(#clip0_70_459)">
<path d="M44.3718 5.39053L44.3719 5.39099L51.7515 46.5143C51.7515 46.5144 51.7515 46.5144 51.7515 46.5144C51.9356 47.5419 51.8456 48.5997 51.4906 49.5812C51.1356 50.5628 50.5281 51.4335 49.7294 52.1055C48.9306 52.7776 47.9688 53.2272 46.941 53.409C45.9131 53.5909 44.8555 53.4986 43.8746 53.1415L43.8746 53.1415L4.40851 38.7773L4.40826 38.7772C3.42698 38.4206 2.55711 37.8115 1.88645 37.0114C1.21579 36.2112 0.768069 35.2483 0.588473 34.2198C0.408876 33.1913 0.50376 32.1336 0.863548 31.1535C1.22334 30.1734 1.8353 29.3056 2.63767 28.6375L2.63792 28.6373L34.7362 1.8785C35.945 0.873391 37.5031 0.388672 39.0689 0.530621C40.6344 0.672555 42.0798 1.42944 43.0882 2.63535C43.7483 3.42652 44.1908 4.37615 44.3718 5.39053ZM36.0157 38.5866C35.1522 38.5859 34.308 38.8414 33.5898 39.3207C32.8715 39.7999 32.3116 40.4815 31.9809 41.2791C31.6501 42.0767 31.5634 42.9545 31.7317 43.8014C31.9 44.6483 32.3157 45.4262 32.9262 46.0368C33.5368 46.6473 34.3147 47.063 35.1616 47.2313C36.0085 47.3996 36.8863 47.3129 37.6839 46.9821C38.4815 46.6514 39.1631 46.0915 39.6423 45.3733C40.1216 44.655 40.3771 43.8108 40.3764 42.9473C40.3755 41.7911 39.9157 40.6825 39.0982 39.8649C38.2806 39.0473 37.1719 38.5875 36.0157 38.5866Z" fill="#F7C532" stroke="white"/>
<path d="M69.1174 39.9692C69.0112 39.9735 68.9051 39.9558 68.806 39.9172C68.7069 39.8786 68.6169 39.8199 68.5415 39.7449C68.4661 39.6698 68.4071 39.58 68.3681 39.481C68.3292 39.382 68.3111 39.2761 68.315 39.1698V18.3642C68.3111 18.2579 68.3292 18.152 68.3681 18.053C68.4071 17.9541 68.4661 17.8642 68.5415 17.7892C68.6169 17.7141 68.7069 17.6554 68.806 17.6168C68.9051 17.5782 69.0112 17.5605 69.1174 17.5648H83.3921C83.4982 17.561 83.6038 17.579 83.7026 17.6178C83.8013 17.6566 83.891 17.7153 83.966 17.7903C84.0411 17.8653 84.0998 17.955 84.1386 18.0538C84.1774 18.1525 84.1954 18.2582 84.1915 18.3642V21.0865C84.1954 21.1925 84.1774 21.2982 84.1386 21.3969C84.0998 21.4957 84.0411 21.5853 83.966 21.6604C83.891 21.7354 83.8013 21.7941 83.7026 21.8329C83.6038 21.8717 83.4982 21.8897 83.3921 21.8858H73.3088V27.2963H82.7502C82.8567 27.2911 82.9631 27.3081 83.0627 27.3464C83.1622 27.3846 83.2526 27.4433 83.3282 27.5185C83.4037 27.5938 83.4627 27.684 83.5014 27.7834C83.54 27.8828 83.5575 27.9892 83.5526 28.0957V30.8148C83.554 30.9159 83.5347 31.0163 83.4959 31.1097C83.4572 31.2031 83.3998 31.2876 83.3273 31.3581C83.2517 31.4332 83.1614 31.4919 83.0621 31.5307C82.9629 31.5694 82.8567 31.5874 82.7502 31.5834H73.3088V39.1698C73.3136 39.276 73.2963 39.3821 73.2578 39.4813C73.2193 39.5805 73.1606 39.6706 73.0854 39.7458C73.0102 39.821 72.9201 39.8797 72.821 39.9182C72.7218 39.9566 72.6157 39.974 72.5094 39.9692H69.1174Z" fill="white"/>
<path d="M95.062 40.2901C93.2904 40.2901 91.8068 39.9969 90.6114 39.4105C89.4662 38.8683 88.5126 37.9911 87.8768 36.895C87.2239 35.7296 86.8668 34.4219 86.8367 33.0864C86.8151 32.6605 86.8027 32.1605 86.8027 31.6327C86.8027 31.1049 86.8027 30.6142 86.8367 30.2068C86.8633 28.8598 87.2375 27.5425 87.9231 26.3827C88.589 25.3 89.5536 24.4329 90.7009 23.8858C92.0734 23.3052 93.5486 23.0061 95.0388 23.0061C96.5291 23.0061 98.0043 23.3052 99.3768 23.8858C100.523 24.4338 101.488 25.3007 102.155 26.3827C102.84 27.5425 103.214 28.8598 103.241 30.2068C103.287 30.6806 103.309 31.1566 103.306 31.6327C103.308 32.118 103.287 32.6032 103.241 33.0864C103.211 34.4219 102.854 35.7296 102.201 36.895C101.564 37.9905 100.611 38.8674 99.4663 39.4105C98.0841 40.0344 96.5779 40.3352 95.062 40.2901ZM95.062 36.7685C96.1052 36.7685 96.8943 36.4434 97.4293 35.7932C97.9643 35.143 98.2523 34.1882 98.2935 32.929C98.3151 32.6203 98.3243 32.1821 98.3243 31.6481C98.3243 31.1142 98.3243 30.6882 98.2935 30.3673C98.2503 29.1327 97.9622 28.1831 97.4293 27.5185C96.8964 26.8539 96.1073 26.5288 95.062 26.5432C94.0147 26.5432 93.2194 26.8734 92.6762 27.5339C92.133 28.1944 91.8398 29.144 91.7966 30.3827C91.775 30.6913 91.7626 31.1296 91.7626 31.6636C91.7626 32.1975 91.7626 32.6234 91.7966 32.9444C91.8398 34.2037 92.133 35.1584 92.6762 35.8086C93.2194 36.4588 94.0147 36.7788 95.062 36.7685Z" fill="white"/>
<path d="M114.308 40.29C112.536 40.29 111.054 39.9968 109.861 39.4103C108.714 38.8683 107.76 37.9912 107.123 36.8949C106.471 35.7289 106.114 34.4215 106.083 33.0863C106.061 32.6603 106.049 32.1603 106.049 31.6326C106.049 31.1048 106.049 30.6141 106.083 30.2066C106.111 28.8599 106.485 27.543 107.169 26.3826C107.835 25.3002 108.8 24.4332 109.947 23.8857C111.319 23.3052 112.794 23.0061 114.283 23.0061C115.773 23.0061 117.248 23.3052 118.62 23.8857C119.767 24.4328 120.732 25.2999 121.398 26.3826C122.083 27.5427 122.458 28.8596 122.487 30.2066C122.527 30.6141 122.549 31.0863 122.549 31.6326C122.549 32.1789 122.527 32.6603 122.487 33.0863C122.454 34.4213 122.097 35.7284 121.447 36.8949C120.809 37.9904 119.855 38.8674 118.709 39.4103C117.328 40.0344 115.823 40.3352 114.308 40.29ZM114.308 36.7684C115.354 36.7684 116.141 36.4597 116.675 35.7931C117.209 35.1264 117.496 34.1881 117.54 32.9289C117.561 32.6202 117.574 32.182 117.574 31.648C117.574 31.1141 117.574 30.6881 117.54 30.3671C117.496 29.1326 117.208 28.183 116.675 27.5184C116.141 26.8517 115.354 26.5431 114.308 26.5431C113.262 26.5431 112.456 26.8733 111.922 27.5338C111.388 28.1943 111.086 29.1449 111.043 30.3826C111.021 30.6912 111.012 31.1295 111.012 31.6634C111.012 32.1974 111.012 32.6233 111.043 32.9443C111.086 34.2036 111.379 35.1583 111.922 35.8085C112.469 36.4443 113.271 36.7684 114.308 36.7684Z" fill="white"/>
<path d="M132.099 40.29C131.123 40.3076 130.155 40.1281 129.25 39.7622C128.434 39.4212 127.71 38.8925 127.136 38.219C126.543 37.5138 126.097 36.6975 125.824 35.8178C125.513 34.8162 125.33 33.779 125.281 32.7313C125.259 32.327 125.247 31.9597 125.247 31.6295C125.247 31.2992 125.247 30.9412 125.281 30.5554C125.311 29.522 125.489 28.4983 125.809 27.5153C126.092 26.6453 126.537 25.8368 127.121 25.1326C127.694 24.453 128.416 23.9153 129.232 23.5616C130.138 23.1786 131.115 22.9894 132.099 23.006C133.077 22.9805 134.049 23.1712 134.945 23.5647C135.691 23.9067 136.357 24.4032 136.898 25.0215V18.0462C136.894 17.9399 136.912 17.8339 136.95 17.7347C136.989 17.6356 137.048 17.5456 137.123 17.4702C137.198 17.3949 137.288 17.3358 137.386 17.2969C137.485 17.2579 137.591 17.2398 137.698 17.2437H140.994C141.096 17.2426 141.196 17.2621 141.29 17.3008C141.384 17.3395 141.469 17.3967 141.54 17.469C141.615 17.5451 141.673 17.6355 141.711 17.7347C141.749 17.834 141.767 17.9399 141.763 18.0462V39.1696C141.766 39.2754 141.749 39.3809 141.711 39.4796C141.672 39.5783 141.614 39.6682 141.54 39.7437C141.469 39.8166 141.384 39.8742 141.29 39.9129C141.197 39.9517 141.096 39.9708 140.994 39.969H137.923C137.822 39.9711 137.721 39.9521 137.628 39.9133C137.534 39.8746 137.45 39.8168 137.38 39.7437C137.305 39.6687 137.246 39.579 137.207 39.4802C137.168 39.3814 137.15 39.2757 137.154 39.1696V38.0801C136.598 38.7398 135.912 39.2786 135.139 39.6634C134.19 40.1105 133.148 40.3252 132.099 40.29ZM133.571 36.4474C134.248 36.4804 134.918 36.2895 135.475 35.9042C135.947 35.5505 136.312 35.0743 136.531 34.5276C136.758 33.956 136.882 33.3491 136.898 32.7344C136.942 32.3305 136.963 31.9246 136.963 31.5184C136.964 31.1234 136.942 30.7288 136.898 30.3363C136.881 29.756 136.751 29.1847 136.516 28.6542C136.269 28.0889 135.856 27.6129 135.33 27.2905C134.805 26.9682 134.193 26.815 133.577 26.8517C132.896 26.814 132.221 26.9993 131.654 27.3795C131.186 27.7309 130.835 28.2163 130.648 28.7715C130.438 29.381 130.314 30.0166 130.278 30.6604C130.216 31.3204 130.216 31.9848 130.278 32.6449C130.313 33.2887 130.438 33.9244 130.648 34.5338C130.834 35.0894 131.185 35.5751 131.654 35.9258C132.222 36.3039 132.897 36.4869 133.577 36.4474H133.571Z" fill="white"/>
<path d="M146.632 39.969C146.526 39.9729 146.42 39.9549 146.322 39.9161C146.223 39.8773 146.133 39.8185 146.058 39.7435C145.983 39.6685 145.924 39.5788 145.886 39.4801C145.847 39.3813 145.829 39.2756 145.833 39.1696V18.0462C145.828 17.9399 145.846 17.8339 145.885 17.7347C145.923 17.6356 145.982 17.5456 146.057 17.4702C146.132 17.3949 146.222 17.3358 146.321 17.2969C146.42 17.2579 146.526 17.2398 146.632 17.2437H150.089C150.19 17.2426 150.291 17.2621 150.385 17.3008C150.479 17.3395 150.564 17.3967 150.635 17.469C150.709 17.5451 150.767 17.6355 150.806 17.7347C150.844 17.834 150.861 17.9399 150.857 18.0462V25.2468C151.439 24.5596 152.16 24.0032 152.972 23.6141C153.914 23.1824 154.942 22.9713 155.978 22.9968C157.149 22.9748 158.304 23.268 159.323 23.8455C160.311 24.4274 161.106 25.2858 161.61 26.3147C162.199 27.5396 162.485 28.8882 162.444 30.2468V39.1758C162.449 39.282 162.431 39.3881 162.393 39.4873C162.354 39.5865 162.296 39.6766 162.22 39.7518C162.145 39.827 162.055 39.8857 161.956 39.9242C161.857 39.9626 161.751 39.98 161.644 39.9752H158.157C158.055 39.9773 157.954 39.9584 157.86 39.9196C157.766 39.8808 157.681 39.823 157.61 39.7499C157.536 39.6743 157.478 39.5845 157.44 39.4857C157.402 39.387 157.384 39.2816 157.388 39.1758V30.432C157.388 29.3003 157.11 28.4196 156.555 27.79C155.999 27.1727 155.212 26.8455 154.188 26.8455C153.742 26.8243 153.297 26.8962 152.881 27.0567C152.465 27.2172 152.087 27.4628 151.771 27.7776C151.154 28.4073 150.845 29.2879 150.845 30.4196V39.1573C150.849 39.263 150.831 39.3685 150.793 39.4672C150.755 39.5659 150.697 39.6558 150.623 39.7313C150.552 39.8042 150.467 39.8618 150.373 39.9006C150.279 39.9393 150.178 39.9584 150.076 39.9567L146.632 39.969Z" fill="white"/>
<path d="M172.398 40.2902C171.247 40.3122 170.112 40.0187 169.117 39.4414C168.151 38.8576 167.382 37.9975 166.91 36.9723C166.354 35.7422 166.086 34.4017 166.126 33.0525V24.1266C166.123 24.0197 166.143 23.9135 166.183 23.8143C166.222 23.7151 166.282 23.625 166.357 23.5494C166.429 23.4772 166.514 23.4203 166.608 23.3821C166.702 23.3439 166.802 23.3252 166.904 23.3272H170.299C170.405 23.3224 170.511 23.3397 170.61 23.3782C170.709 23.4167 170.8 23.4754 170.875 23.5506C170.95 23.6258 171.009 23.7159 171.047 23.8151C171.086 23.9142 171.103 24.0203 171.098 24.1266V32.8642C171.098 35.2531 172.143 36.4476 174.234 36.4476C174.676 36.4693 175.118 36.3962 175.529 36.2333C175.94 36.0704 176.312 35.8215 176.62 35.5031C177.206 34.8858 177.499 33.9939 177.499 32.8642V24.1266C177.495 24.0203 177.512 23.9142 177.55 23.8151C177.589 23.7159 177.648 23.6258 177.723 23.5506C177.798 23.4754 177.888 23.4167 177.987 23.3782C178.086 23.3397 178.193 23.3224 178.299 23.3272H181.694C181.795 23.3256 181.896 23.3444 181.99 23.3826C182.084 23.4208 182.169 23.4775 182.24 23.5494C182.314 23.6257 182.372 23.7162 182.41 23.8154C182.448 23.9145 182.466 24.0204 182.462 24.1266V39.1698C182.466 39.2756 182.449 39.381 182.41 39.4798C182.372 39.5785 182.314 39.6683 182.24 39.7439C182.169 39.8168 182.084 39.8744 181.99 39.9131C181.896 39.9519 181.795 39.9709 181.694 39.9692H178.543C178.437 39.9731 178.331 39.9551 178.232 39.9163C178.133 39.8775 178.044 39.8187 177.969 39.7437C177.894 39.6687 177.835 39.579 177.796 39.4802C177.757 39.3815 177.739 39.2758 177.743 39.1698V37.9352C177.194 38.6992 176.454 39.3067 175.598 39.6976C174.587 40.1242 173.495 40.3263 172.398 40.2902Z" fill="white"/>
<path d="M196.148 40.29C195.099 40.3285 194.056 40.1169 193.105 39.6727C192.338 39.2939 191.662 38.7538 191.123 38.0894V39.1789C191.127 39.2852 191.109 39.3911 191.07 39.4901C191.031 39.5891 190.972 39.6789 190.897 39.754C190.821 39.829 190.731 39.8877 190.632 39.9263C190.533 39.9649 190.427 39.9826 190.321 39.9783H187.281C187.175 39.9831 187.068 39.9657 186.969 39.9273C186.87 39.8888 186.78 39.8301 186.705 39.7549C186.63 39.6797 186.571 39.5896 186.532 39.4904C186.494 39.3913 186.477 39.2852 186.481 39.1789V18.0462C186.476 17.9397 186.493 17.8332 186.531 17.7337C186.57 17.6342 186.628 17.5437 186.704 17.4682C186.779 17.3926 186.869 17.3336 186.968 17.295C187.068 17.2563 187.174 17.2389 187.281 17.2437H190.577C190.679 17.2427 190.779 17.2621 190.873 17.3008C190.967 17.3395 191.052 17.3967 191.123 17.469C191.198 17.5451 191.256 17.6355 191.294 17.7348C191.332 17.834 191.35 17.9399 191.346 18.0462V25.0215C191.903 24.4076 192.578 23.9121 193.33 23.5647C194.217 23.1733 195.179 22.9826 196.148 23.0061C197.142 22.9843 198.129 23.1748 199.043 23.5647C199.849 23.9268 200.565 24.4634 201.139 25.1357C201.732 25.8364 202.184 26.6456 202.469 27.5184C202.788 28.4997 202.954 29.5238 202.963 30.5554C202.984 30.9412 202.997 31.2962 202.997 31.6295C202.997 31.9629 202.997 32.3271 202.963 32.7314C202.934 33.7799 202.756 34.8191 202.435 35.8178C202.155 36.6943 201.709 37.5093 201.123 38.219C200.562 38.8914 199.849 39.4205 199.043 39.7622C198.124 40.1325 197.139 40.3121 196.148 40.29ZM194.707 36.4474C195.387 36.4852 196.061 36.2999 196.626 35.9196C197.096 35.5681 197.448 35.0829 197.636 34.5277C197.844 33.9177 197.967 33.2822 198.003 32.6388C198.046 31.978 198.046 31.315 198.003 30.6542C197.967 30.0108 197.843 29.3754 197.636 28.7653C197.447 28.2105 197.095 27.7254 196.626 27.3733C196.06 26.9953 195.386 26.8122 194.707 26.8517C194.044 26.8229 193.389 27.002 192.833 27.3641C192.364 27.6941 191.99 28.141 191.747 28.6604C191.5 29.1878 191.363 29.7603 191.346 30.3425C191.324 30.7252 191.315 31.1203 191.315 31.5246C191.315 31.9289 191.315 32.3363 191.346 32.7406C191.382 33.3546 191.512 33.9593 191.731 34.5338C191.942 35.0855 192.309 35.5638 192.787 35.9104C193.352 36.2932 194.025 36.4818 194.707 36.4474Z" fill="white"/>
<path d="M174.238 19.5771C175.857 19.5771 177.17 18.2643 177.17 16.645C177.17 15.0256 175.857 13.7129 174.238 13.7129C172.618 13.7129 171.306 15.0256 171.306 16.645C171.306 18.2643 172.618 19.5771 174.238 19.5771Z" fill="#F7C532"/>
</g>
<defs>
<clipPath id="clip0_70_459">
<rect width="202.997" height="54" fill="white"/>
</clipPath>
</defs>
</svg>
