<svg width="203" height="54" viewBox="0 0 203 54" fill="none" xmlns="http://www.w3.org/2000/svg">
<path fill-rule="evenodd" clip-rule="evenodd" d="M43.4721 2.30867C44.1879 3.1666 44.6677 4.19636 44.864 5.29632L52.2437 46.4198C52.4433 47.5338 52.3457 48.6807 51.9608 49.7449C51.5759 50.8092 50.9172 51.7532 50.0512 52.4818C49.1853 53.2104 48.1425 53.6978 47.0281 53.895C45.9137 54.0922 44.767 53.9922 43.7036 53.605L4.23751 39.2408C3.17355 38.8542 2.23041 38.1938 1.50325 37.3262C0.77609 36.4586 0.290652 35.4146 0.0959257 34.2994C-0.0988003 33.1843 0.00407696 32.0375 0.394175 30.9749C0.784272 29.9122 1.44779 28.9712 2.31775 28.2469L34.4165 1.48768C35.7272 0.397947 37.4165 -0.127586 39.114 0.0263154C40.8115 0.180216 42.3788 1.00099 43.4721 2.30867ZM36.0153 39.0803C35.2508 39.0797 34.5032 39.3059 33.8673 39.7302C33.2314 40.1546 32.7356 40.7581 32.4427 41.4643C32.1499 42.1705 32.0731 42.9477 32.2221 43.6976C32.3711 44.4475 32.7392 45.1363 33.2798 45.6769C33.8204 46.2175 34.5092 46.5856 35.2591 46.7346C36.009 46.8836 36.7862 46.8068 37.4924 46.5139C38.1986 46.2211 38.8021 45.7253 39.2264 45.0894C39.6508 44.4534 39.877 43.7059 39.8764 42.9414C39.8756 41.9176 39.4685 40.936 38.7446 40.2121C38.0207 39.4881 37.0391 39.0811 36.0153 39.0803Z" fill="#F7C532"/>
<path d="M44.3718 5.38419L44.3719 5.38464L51.7515 46.508C51.7515 46.508 51.7515 46.508 51.7515 46.5081C51.9356 47.5355 51.8456 48.5933 51.4906 49.5749C51.1356 50.5565 50.5281 51.4272 49.7294 52.0992C48.9306 52.7712 47.9688 53.2208 46.941 53.4027C45.9131 53.5846 44.8555 53.4923 43.8746 53.1351L43.8746 53.1351L4.40851 38.7709L4.40826 38.7708C3.42698 38.4143 2.55711 37.8052 1.88645 37.005C1.21579 36.2048 0.768069 35.2419 0.588473 34.2134C0.408876 33.1849 0.50376 32.1273 0.863548 31.1472C1.22334 30.1671 1.8353 29.2992 2.63767 28.6312L2.63792 28.631L34.7362 1.87215C35.945 0.867043 37.5031 0.382324 39.0689 0.524273C40.6344 0.666207 42.0798 1.4231 43.0882 2.629C43.7483 3.42017 44.1908 4.36981 44.3718 5.38419ZM36.0157 38.5803C35.1522 38.5796 34.308 38.835 33.5898 39.3143C32.8715 39.7936 32.3116 40.4752 31.9809 41.2728C31.6501 42.0704 31.5634 42.9481 31.7317 43.795C31.9 44.6419 32.3157 45.4199 32.9262 46.0304C33.5368 46.641 34.3147 47.0567 35.1616 47.225C36.0085 47.3933 36.8863 47.3065 37.6839 46.9758C38.4815 46.645 39.1631 46.0851 39.6423 45.3669C40.1216 44.6487 40.3771 43.8044 40.3764 42.941C40.3755 41.7847 39.9157 40.6761 39.0982 39.8585C38.2806 39.0409 37.1719 38.5812 36.0157 38.5803Z" stroke="black" stroke-opacity="0.53"/>
<path d="M69.1174 39.9628C69.0112 39.9671 68.9051 39.9495 68.806 39.9109C68.7069 39.8723 68.6169 39.8136 68.5415 39.7385C68.4661 39.6634 68.4071 39.5736 68.3681 39.4746C68.3292 39.3757 68.3111 39.2697 68.315 39.1634V18.3579C68.3111 18.2516 68.3292 18.1456 68.3681 18.0467C68.4071 17.9477 68.4661 17.8579 68.5415 17.7828C68.6169 17.7077 68.7069 17.6491 68.806 17.6105C68.9051 17.5719 69.0112 17.5542 69.1174 17.5585H83.3921C83.4982 17.5546 83.6038 17.5726 83.7026 17.6114C83.8013 17.6502 83.891 17.709 83.966 17.784C84.0411 17.859 84.0998 17.9487 84.1386 18.0474C84.1774 18.1462 84.1954 18.2519 84.1915 18.3579V21.0801C84.1954 21.1861 84.1774 21.2918 84.1386 21.3906C84.0998 21.4893 84.0411 21.579 83.966 21.654C83.891 21.729 83.8013 21.7878 83.7026 21.8266C83.6038 21.8654 83.4982 21.8834 83.3921 21.8795H73.3088V27.29H82.7502C82.8567 27.2847 82.9631 27.3018 83.0627 27.34C83.1622 27.3783 83.2526 27.4369 83.3282 27.5122C83.4037 27.5875 83.4627 27.6777 83.5014 27.7771C83.54 27.8765 83.5575 27.9828 83.5526 28.0894V30.8085C83.554 30.9096 83.5347 31.0099 83.4959 31.1033C83.4572 31.1967 83.3998 31.2812 83.3273 31.3517C83.2517 31.4268 83.1614 31.4856 83.0621 31.5243C82.9629 31.5631 82.8567 31.581 82.7502 31.577H73.3088V39.1634C73.3136 39.2697 73.2963 39.3758 73.2578 39.475C73.2193 39.5741 73.1606 39.6642 73.0854 39.7394C73.0102 39.8146 72.9201 39.8733 72.821 39.9118C72.7218 39.9503 72.6157 39.9676 72.5094 39.9628H69.1174Z" fill="black"/>
<path d="M95.062 40.2837C93.2904 40.2837 91.8068 39.9905 90.6114 39.4041C89.4662 38.8619 88.5126 37.9847 87.8768 36.8887C87.2239 35.7233 86.8668 34.4155 86.8367 33.08C86.8151 32.6541 86.8027 32.1541 86.8027 31.6263C86.8027 31.0986 86.8027 30.6078 86.8367 30.2004C86.8633 28.8534 87.2375 27.5361 87.9231 26.3763C88.589 25.2937 89.5536 24.4266 90.7009 23.8794C92.0734 23.2989 93.5486 22.9998 95.0388 22.9998C96.5291 22.9998 98.0043 23.2989 99.3768 23.8794C100.523 24.4274 101.488 25.2943 102.155 26.3763C102.84 27.5361 103.214 28.8534 103.241 30.2004C103.287 30.6743 103.309 31.1502 103.306 31.6263C103.308 32.1117 103.287 32.5969 103.241 33.08C103.211 34.4155 102.854 35.7233 102.201 36.8887C101.564 37.9841 100.611 38.8611 99.4663 39.4041C98.0841 40.028 96.5779 40.3288 95.062 40.2837ZM95.062 36.7621C96.1052 36.7621 96.8943 36.437 97.4293 35.7868C97.9643 35.1366 98.2523 34.1819 98.2935 32.9226C98.3151 32.614 98.3243 32.1757 98.3243 31.6418C98.3243 31.1078 98.3243 30.6819 98.2935 30.3609C98.2503 29.1263 97.9622 28.1768 97.4293 27.5121C96.8964 26.8475 96.1073 26.5224 95.062 26.5368C94.0147 26.5368 93.2194 26.8671 92.6762 27.5276C92.133 28.1881 91.8398 29.1377 91.7966 30.3763C91.775 30.685 91.7626 31.1233 91.7626 31.6572C91.7626 32.1912 91.7626 32.6171 91.7966 32.9381C91.8398 34.1973 92.133 35.1521 92.6762 35.8023C93.2194 36.4525 94.0147 36.7724 95.062 36.7621Z" fill="black"/>
<path d="M114.308 40.2836C112.536 40.2836 111.054 39.9904 109.861 39.404C108.714 38.862 107.76 37.9848 107.123 36.8886C106.471 35.7226 106.114 34.4152 106.083 33.0799C106.061 32.654 106.049 32.154 106.049 31.6262C106.049 31.0984 106.049 30.6077 106.083 30.2003C106.111 28.8535 106.485 27.5366 107.169 26.3762C107.835 25.2939 108.8 24.4269 109.947 23.8793C111.319 23.2988 112.794 22.9998 114.283 22.9998C115.773 22.9998 117.248 23.2988 118.62 23.8793C119.767 24.4264 120.732 25.2935 121.398 26.3762C122.083 27.5363 122.458 28.8532 122.487 30.2003C122.527 30.6077 122.549 31.0799 122.549 31.6262C122.549 32.1725 122.527 32.654 122.487 33.0799C122.454 34.415 122.097 35.722 121.447 36.8886C120.809 37.9841 119.855 38.861 118.709 39.404C117.328 40.028 115.823 40.3289 114.308 40.2836ZM114.308 36.762C115.354 36.762 116.141 36.4534 116.675 35.7867C117.209 35.12 117.496 34.1818 117.54 32.9225C117.561 32.6139 117.574 32.1756 117.574 31.6417C117.574 31.1077 117.574 30.6818 117.54 30.3608C117.496 29.1262 117.208 28.1766 116.675 27.512C116.141 26.8454 115.354 26.5367 114.308 26.5367C113.262 26.5367 112.456 26.867 111.922 27.5275C111.388 28.1879 111.086 29.1386 111.043 30.3762C111.021 30.6849 111.012 31.1231 111.012 31.6571C111.012 32.191 111.012 32.617 111.043 32.9379C111.086 34.1972 111.379 35.1519 111.922 35.8021C112.469 36.4379 113.271 36.762 114.308 36.762Z" fill="black"/>
<path d="M132.099 40.2836C131.123 40.3013 130.155 40.1217 129.25 39.7559C128.434 39.4148 127.71 38.8861 127.136 38.2126C126.543 37.5075 126.097 36.6911 125.824 35.8114C125.513 34.8099 125.33 33.7727 125.281 32.725C125.259 32.3207 125.247 31.9534 125.247 31.6231C125.247 31.2929 125.247 30.9349 125.281 30.5491C125.311 29.5157 125.489 28.4919 125.809 27.5089C126.092 26.6389 126.537 25.8304 127.121 25.1262C127.694 24.4467 128.416 23.909 129.232 23.5552C130.138 23.1723 131.115 22.983 132.099 22.9997C133.077 22.9741 134.049 23.1649 134.945 23.5583C135.691 23.9004 136.357 24.3969 136.898 25.0151V18.0398C136.894 17.9335 136.912 17.8275 136.95 17.7284C136.989 17.6293 137.048 17.5392 137.123 17.4639C137.198 17.3885 137.288 17.3295 137.386 17.2905C137.485 17.2515 137.591 17.2334 137.698 17.2373H140.994C141.096 17.2363 141.196 17.2557 141.29 17.2944C141.384 17.3331 141.469 17.3903 141.54 17.4626C141.615 17.5388 141.673 17.6292 141.711 17.7284C141.749 17.8276 141.767 17.9336 141.763 18.0398V39.1633C141.766 39.269 141.749 39.3745 141.711 39.4732C141.672 39.5719 141.614 39.6618 141.54 39.7373C141.469 39.8102 141.384 39.8678 141.29 39.9066C141.197 39.9453 141.096 39.9644 140.994 39.9626H137.923C137.822 39.9647 137.721 39.9458 137.628 39.907C137.534 39.8682 137.45 39.8104 137.38 39.7373C137.305 39.6624 137.246 39.5727 137.207 39.4739C137.168 39.3751 137.15 39.2693 137.154 39.1633V38.0738C136.598 38.7334 135.912 39.2723 135.139 39.6571C134.19 40.1041 133.148 40.3189 132.099 40.2836ZM133.571 36.441C134.248 36.4741 134.918 36.2832 135.475 35.8978C135.947 35.5441 136.312 35.068 136.531 34.5213C136.758 33.9497 136.882 33.3427 136.898 32.7281C136.942 32.3242 136.963 31.9182 136.963 31.512C136.964 31.1171 136.942 30.7224 136.898 30.3299C136.881 29.7497 136.751 29.1784 136.516 28.6478C136.269 28.0826 135.856 27.6066 135.33 27.2842C134.805 26.9618 134.193 26.8086 133.577 26.8454C132.896 26.8076 132.221 26.9929 131.654 27.3731C131.186 27.7245 130.835 28.2099 130.648 28.7651C130.438 29.3746 130.314 30.0103 130.278 30.654C130.216 31.3141 130.216 31.9785 130.278 32.6386C130.313 33.2823 130.438 33.918 130.648 34.5275C130.834 35.0831 131.185 35.5687 131.654 35.9194C132.222 36.2975 132.897 36.4806 133.577 36.441H133.571Z" fill="black"/>
<path d="M146.632 39.9626C146.526 39.9665 146.42 39.9485 146.322 39.9097C146.223 39.8709 146.133 39.8122 146.058 39.7372C145.983 39.6622 145.924 39.5725 145.886 39.4737C145.847 39.375 145.829 39.2693 145.833 39.1633V18.0398C145.828 17.9335 145.846 17.8275 145.885 17.7284C145.923 17.6293 145.982 17.5392 146.057 17.4639C146.132 17.3885 146.222 17.3295 146.321 17.2905C146.42 17.2515 146.526 17.2334 146.632 17.2373H150.089C150.19 17.2363 150.291 17.2557 150.385 17.2944C150.479 17.3331 150.564 17.3903 150.635 17.4626C150.709 17.5388 150.767 17.6292 150.806 17.7284C150.844 17.8276 150.861 17.9336 150.857 18.0398V25.2404C151.439 24.5533 152.16 23.9969 152.972 23.6077C153.914 23.1761 154.942 22.965 155.978 22.9904C157.149 22.9685 158.304 23.2616 159.323 23.8392C160.311 24.4211 161.106 25.2795 161.61 26.3083C162.199 27.5333 162.485 28.8819 162.444 30.2404V39.1694C162.449 39.2757 162.431 39.3818 162.393 39.481C162.354 39.5801 162.296 39.6702 162.22 39.7454C162.145 39.8206 162.055 39.8793 161.956 39.9178C161.857 39.9563 161.751 39.9737 161.644 39.9688H158.157C158.055 39.971 157.954 39.952 157.86 39.9133C157.766 39.8745 157.681 39.8167 157.61 39.7435C157.536 39.668 157.478 39.5781 157.44 39.4794C157.402 39.3807 157.384 39.2752 157.388 39.1694V30.4256C157.388 29.2939 157.11 28.4133 156.555 27.7836C155.999 27.1664 155.212 26.8392 154.188 26.8392C153.742 26.818 153.297 26.8899 152.881 27.0504C152.465 27.2109 152.087 27.4564 151.771 27.7713C151.154 28.4009 150.845 29.2816 150.845 30.4133V39.1509C150.849 39.2567 150.831 39.3622 150.793 39.4609C150.755 39.5596 150.697 39.6495 150.623 39.725C150.552 39.7979 150.467 39.8555 150.373 39.8942C150.279 39.933 150.178 39.9521 150.076 39.9503L146.632 39.9626Z" fill="black"/>
<path d="M172.398 40.2838C171.247 40.3059 170.112 40.0124 169.117 39.4351C168.151 38.8513 167.382 37.9912 166.91 36.9659C166.354 35.7358 166.086 34.3953 166.126 33.0462V24.1202C166.123 24.0134 166.143 23.9071 166.183 23.8079C166.222 23.7087 166.282 23.6186 166.357 23.5431C166.429 23.4709 166.514 23.414 166.608 23.3758C166.702 23.3376 166.802 23.3189 166.904 23.3209H170.299C170.405 23.316 170.511 23.3334 170.61 23.3719C170.709 23.4103 170.8 23.469 170.875 23.5443C170.95 23.6195 171.009 23.7095 171.047 23.8087C171.086 23.9079 171.103 24.014 171.098 24.1202V32.8579C171.098 35.2468 172.143 36.4412 174.234 36.4412C174.676 36.4629 175.118 36.3899 175.529 36.227C175.94 36.0641 176.312 35.8151 176.62 35.4968C177.206 34.8795 177.499 33.9875 177.499 32.8579V24.1202C177.495 24.014 177.512 23.9079 177.55 23.8087C177.589 23.7095 177.648 23.6195 177.723 23.5443C177.798 23.469 177.888 23.4103 177.987 23.3719C178.086 23.3334 178.193 23.316 178.299 23.3209H181.694C181.795 23.3192 181.896 23.3381 181.99 23.3763C182.084 23.4145 182.169 23.4712 182.24 23.5431C182.314 23.6194 182.372 23.7098 182.41 23.809C182.448 23.9082 182.466 24.014 182.462 24.1202V39.1634C182.466 39.2692 182.449 39.3747 182.41 39.4734C182.372 39.5721 182.314 39.662 182.24 39.7375C182.169 39.8104 182.084 39.868 181.99 39.9068C181.896 39.9455 181.795 39.9646 181.694 39.9628H178.543C178.437 39.9667 178.331 39.9487 178.232 39.9099C178.133 39.8711 178.044 39.8124 177.969 39.7374C177.894 39.6623 177.835 39.5726 177.796 39.4739C177.757 39.3752 177.739 39.2695 177.743 39.1634V37.9289C177.194 38.6929 176.454 39.3003 175.598 39.6912C174.587 40.1178 173.495 40.32 172.398 40.2838Z" fill="black"/>
<path d="M196.148 40.2837C195.099 40.3222 194.056 40.1106 193.105 39.6664C192.338 39.2875 191.662 38.7474 191.123 38.083V39.1726C191.127 39.2788 191.109 39.3848 191.07 39.4838C191.031 39.5827 190.972 39.6726 190.897 39.7476C190.821 39.8227 190.731 39.8814 190.632 39.92C190.533 39.9586 190.427 39.9763 190.321 39.9719H187.281C187.175 39.9768 187.068 39.9594 186.969 39.9209C186.87 39.8825 186.78 39.8237 186.705 39.7485C186.63 39.6733 186.571 39.5833 186.532 39.4841C186.494 39.3849 186.477 39.2788 186.481 39.1726V18.0398C186.476 17.9333 186.493 17.8269 186.531 17.7273C186.57 17.6278 186.628 17.5374 186.704 17.4618C186.779 17.3863 186.869 17.3273 186.968 17.2886C187.068 17.25 187.174 17.2325 187.281 17.2374H190.577C190.679 17.2363 190.779 17.2557 190.873 17.2944C190.967 17.3332 191.052 17.3904 191.123 17.4627C191.198 17.5388 191.256 17.6292 191.294 17.7284C191.332 17.8276 191.35 17.9336 191.346 18.0398V25.0151C191.903 24.4012 192.578 23.9058 193.33 23.5584C194.217 23.167 195.179 22.9762 196.148 22.9997C197.142 22.978 198.129 23.1684 199.043 23.5584C199.849 23.9205 200.565 24.4571 201.139 25.1293C201.732 25.8301 202.184 26.6393 202.469 27.5121C202.788 28.4933 202.954 29.5175 202.963 30.5491C202.984 30.9349 202.997 31.2898 202.997 31.6232C202.997 31.9565 202.997 32.3207 202.963 32.725C202.934 33.7736 202.756 34.8127 202.435 35.8114C202.155 36.688 201.709 37.5029 201.123 38.2127C200.562 38.8851 199.849 39.4141 199.043 39.7559C198.124 40.1262 197.139 40.3058 196.148 40.2837ZM194.707 36.4411C195.387 36.4788 196.061 36.2935 196.626 35.9133C197.096 35.5618 197.448 35.0765 197.636 34.5213C197.844 33.9114 197.967 33.2758 198.003 32.6324C198.046 31.9716 198.046 31.3087 198.003 30.6479C197.967 30.0045 197.843 29.369 197.636 28.759C197.447 28.2041 197.095 27.719 196.626 27.367C196.06 26.989 195.386 26.8058 194.707 26.8454C194.044 26.8166 193.389 26.9957 192.833 27.3577C192.364 27.6878 191.99 28.1346 191.747 28.654C191.5 29.1814 191.363 29.7539 191.346 30.3361C191.324 30.7188 191.315 31.1139 191.315 31.5182C191.315 31.9226 191.315 32.33 191.346 32.7343C191.382 33.3482 191.512 33.9529 191.731 34.5275C191.942 35.0791 192.309 35.5574 192.787 35.904C193.352 36.2869 194.025 36.4754 194.707 36.4411Z" fill="black"/>
<path d="M174.238 19.5707C175.857 19.5707 177.17 18.258 177.17 16.6386C177.17 15.0193 175.857 13.7065 174.238 13.7065C172.618 13.7065 171.306 15.0193 171.306 16.6386C171.306 18.258 172.618 19.5707 174.238 19.5707Z" fill="#F7C532"/>
</svg>
